# xmcd
#
# Track frame offsets: 
#        150
#        14605
#        25607
#        48868
#        68940
#        93839
#        120448
#        140001
#        167436
#        183377
#        207922
#        228098
#        244040
#        263713
#        287377
#        309262
#        328416
#
# Disc length: 4696 seconds
#
# Revision: 2
# Processed by: cddbd v1.5.2PL0 Copyright (c) Steve Scherf et al.
# Submitted via: ExactAudioCopyFreeDBPlugin 1.0
#
DISCID=de125611
DTITLE=Various Artist - BackBeats: Back To My Place Baby
DYEAR=2009
DGENRE=Soul
TTITLE0=Al Green - I'm Still In Love With You
TTITLE1=Ann Peebles - I Can't Stand The Rain
TTITLE2=The Chi-Lites - Have You Seen Her
TTITLE3=Teddy Pendergrass - The Whole Town's Laughing At Me
TTITLE4=Average White Band - A Love Of Your Own
TTITLE5=Paris - I Choose You
TTITLE6=Windy City - I Stil Love You
TTITLE7=Manchild - Especially For You
TTITLE8=The O'jays - Brandy
TTITLE9=Teddy Pendergrass - Close The Door
TTITLE10=Walter Jackson - It's Cool
TTITLE11=The Jones Girls - Eternally
TTITLE12=Margie Alexander - What Cha Tryin' To Do To Me
TTITLE13=Dexter Wansel - The Sweetest Pain
TTITLE14=Jean Carn - Don't Let It Go To Your Head
TTITLE15=Dee Dee Sharp Gamble - Just As Long As I Know You're Mine
TTITLE16=Harold Melvin and The Blue Notes - You Know How To Make Me Feel
TTITLE16=So Good
EXTD=
EXTT0=
EXTT1=
EXTT2=
EXTT3=
EXTT4=
EXTT5=
EXTT6=
EXTT7=
EXTT8=
EXTT9=
EXTT10=
EXTT11=
EXTT12=
EXTT13=
EXTT14=
EXTT15=
EXTT16=
PLAYORDER=
